<?xml version="1.0" encoding="utf-8"?>
<!-- Generator: Adobe Illustrator 20.1.0, SVG Export Plug-In . SVG Version: 6.00 Build 0)  -->
<svg version="1.0" id="Ebene_1" xmlns="http://www.w3.org/2000/svg" xmlns:xlink="http://www.w3.org/1999/xlink" x="0px" y="0px"
	 viewBox="0 0 34.1 34.1" style="enable-background:new 0 0 34.1 34.1;" xml:space="preserve">
<style type="text/css">
	.st0{opacity:0.95;}
	.st1{fill:#FFFFFF;}
</style>
<g>
	<g class="st0">
		<defs>
			<path id="SVGID_1_" class="st0" d="M32,21.5 M10.1,1.9C9,1.9,8,2.5,7.4,3.4l-7,12.1c-0.5,0.9-0.5,2.1,0,3.1l7,12.1
				c0.5,0.9,1.6,1.5,2.6,1.5h11.3L32,21.5l1.7-2.9c0.5-0.9,0.5-2.1,0-3.1l-7-12.1c-0.5-0.9-1.6-1.5-2.7-1.5H10.1z"/>
		</defs>
		<use xlink:href="#SVGID_1_"  style="overflow:visible;fill:#4682eb;"/>
		<clipPath id="SVGID_2_">
			<use xlink:href="#SVGID_1_"  style="overflow:visible;"/>
		</clipPath>
	</g>
	<g>
		<defs>
			<path id="SVGID_3_" d="M15.6,10l1.6,1.6L13.1,13l-1.6,4L10,15.5L7.2,18l14.2,14.2H24c1.1,0,2.1-0.6,2.7-1.5l5.3-9.2l-5-5
				l-0.2-0.1l-9.3-9.3L15.6,10z"/>
		</defs>
		<use xlink:href="#SVGID_3_"  style="overflow:visible;fill:#407bdd;"/>
		<clipPath id="SVGID_4_">
			<use xlink:href="#SVGID_3_"  style="overflow:visible;"/>
		</clipPath>
	</g>
	<path class="st1" d="M17,21.7c-2.6,0-4.7-2.1-4.7-4.7c0-2.6,2.1-4.7,4.7-4.7c2.6,0,4.7,2.1,4.7,4.7C21.7,19.6,19.6,21.7,17,21.7
		 M17,10.9c-3.4,0-6.1,2.7-6.1,6.1c0,3.4,2.7,6.1,6.1,6.1c3.4,0,6.1-2.7,6.1-6.1C23.2,13.7,20.4,10.9,17,10.9"/>
	<path class="st1" d="M26.7,16.3l-2.6-0.8c0.1,0.5,0.2,1,0.2,1.5c0,0.4,0,0.7-0.1,1.1h2.5c0.2-0.1,0.4-0.2,0.4-0.4v-1
		C27,16.5,26.9,16.4,26.7,16.3"/>
	<path class="st1" d="M17,9.8c0.5,0,1,0.1,1.5,0.2l-0.9-2.5c-0.1-0.2-0.2-0.4-0.4-0.4h-0.4c-0.2,0-0.4,0.2-0.4,0.4L15.6,10
		C16.1,9.9,16.6,9.8,17,9.8"/>
	<path class="st1" d="M9.8,17.1c0-0.5,0.1-1,0.2-1.5l-2.6,0.8c-0.2,0.1-0.4,0.2-0.4,0.4v1c0,0.2,0.2,0.4,0.4,0.4h2.5
		C9.9,17.8,9.8,17.4,9.8,17.1"/>
	<path class="st1" d="M18,18c-0.3,0.3-0.6,0.4-1,0.4c-0.4,0-0.7-0.1-1-0.4c-0.5-0.5-0.5-1.4,0-2c0.3-0.3,0.6-0.4,1-0.4
		c0.4,0,0.7,0.1,1,0.4C18.6,16.6,18.6,17.5,18,18 M19.2,15l-0.6,0.6v0c-0.4-0.4-1-0.6-1.6-0.6c-0.6,0-1.1,0.2-1.6,0.6
		c-0.9,0.9-0.9,2.3,0,3.1L15,19.3c0.5,0.5,1.3,0.9,2.1,0.9c1.7,0,3-1.4,3-3C20.1,16.4,19.8,15.6,19.2,15"/>
</g>
</svg>
