<svg xmlns="http://www.w3.org/2000/svg" viewBox="0 0 288.8 217.5"><path fill="#F68D11" d="M161.2 75l-33.7-11.2V15l33.8 10-.1 50M170 25l33.8-10-.1 48.7L170 75V25M196.9 9.7L165.4 0l-31 9.7 31.1 8.3 31.4-8.3M246.2 75l-33.7-11.2V15l33.8 10-.1 50M255 25l33.8-10-.1 48.7L255 75V25M281.9 9.7L250.4 0l-31 9.7 31.1 8.3 31.4-8.3M33.8 96.2L0 86.2V135l33.7 11.2.1-50M42.5 96.2l33.8-10-.2 48.8-33.6 11.3V96.2M69.4 81l-31.5-9.7-31 9.7L38 89.3 69.4 81M118.7 146.2L85 135V86.2l33.8 10-.1 50M127.5 96.2l33.8-10-.1 48.7-33.6 11.3v-50M154.4 81l-31.5-9.7-31 9.7 31.1 8.3 31.4-8.3M76.2 217.5l-33.7-11.2v-48.8l33.8 10-.1 50M85 167.5l33.8-10-.1 48.7L85 217.5v-50M111.9 152.2l-31.5-9.7-31 9.7 31.1 8.3 31.4-8.3"/></svg>