<svg xmlns="http://www.w3.org/2000/svg" xmlns:xlink="http://www.w3.org/1999/xlink" viewBox="0 0 373.23828 415.95871" height="415.959" width="373.238"><defs><linearGradient id="f"><stop offset="0" stop-color="#fff"/><stop offset="1" stop-color="#fff" stop-opacity="0"/></linearGradient><linearGradient id="e"><stop offset="0" stop-color="#fff"/><stop offset=".5" stop-color="#fff" stop-opacity=".532"/><stop offset="1" stop-color="#fff" stop-opacity="0"/></linearGradient><linearGradient id="d"><stop offset="0" stop-color="#e5e5e5"/><stop offset="1" stop-color="#fff"/></linearGradient><linearGradient id="c"><stop offset="0" stop-color="#24303a"/><stop offset="1" stop-color="#394958"/></linearGradient><linearGradient id="b"><stop offset="0" stop-color="#25303b"/><stop offset="1" stop-color="#25303b" stop-opacity="0"/></linearGradient><linearGradient id="a"><stop offset="0" stop-color="#acacac"/><stop offset="1" stop-color="#e9e9e9"/></linearGradient><linearGradient gradientTransform="translate(-14.85 -10.607)" gradientUnits="userSpaceOnUse" y2="198.421" x2="70.076" y1="402.394" x1="386.671" id="h" xlink:href="#a"/><filter height="1.107" y="-.054" width="1.402" x="-.201" id="p" color-interpolation-filters="sRGB"><feGaussianBlur stdDeviation="1.11"/></filter><filter height="1.222" y="-.111" width="1.83" x="-.415" id="o" color-interpolation-filters="sRGB"><feGaussianBlur stdDeviation="2.293"/></filter><radialGradient r="16.25" fy="-334.763" fx="355.75" cy="-334.763" cx="355.75" gradientTransform="matrix(.92308 -11.5077 -5.89644 -.47304 -2165.7 4248.202)" gradientUnits="userSpaceOnUse" id="i" xlink:href="#b"/><linearGradient gradientTransform="translate(-14.85 -10.607)" gradientUnits="userSpaceOnUse" y2="136.707" x2="326.447" y1="321.846" x1="342.034" id="j" xlink:href="#c"/><linearGradient gradientTransform="matrix(-1 0 0 1 477.738 -10.607)" y2="136.707" x2="326.447" y1="321.846" x1="342.034" gradientUnits="userSpaceOnUse" id="k" xlink:href="#c"/><linearGradient gradientTransform="translate(-14.85 -10.607)" gradientUnits="userSpaceOnUse" y2="143.957" x2="107" y1="117.797" x1="367.775" id="l" xlink:href="#d"/><linearGradient gradientUnits="userSpaceOnUse" y2="317.94" x2="182.228" y1="190.194" x1="182.228" id="m" xlink:href="#e"/><linearGradient gradientUnits="userSpaceOnUse" y2="126.35" x2="193.994" y1="190.194" x1="193.994" id="n" xlink:href="#f"/><filter height="1.715" y="-.358" width="1.262" x="-.131" id="g" color-interpolation-filters="sRGB"><feGaussianBlur stdDeviation="19.201"/></filter></defs><path transform="matrix(.77652 0 0 .68796 7.172 76.224)" d="M407.211 433.212l-80.56-128.862h-191.5L54.985 433.194z" fill-opacity=".569" fill-rule="evenodd" filter="url(#g)"/><path d="M296.68 298.9l-23.106 48.268-15.91-60.104zm-212.746 0l15.73 48.268 15.91-60.104z" fill="#7f8082" fill-rule="evenodd"/><path d="M54.985 190.194l-.012.018 32.791 207.806h56.373l-4.605-48.267h28.923l3.684 48.267h118.09l3.683-48.267h28.74l-4.605 48.267h56.74l32.424-207.806-.011-.018H54.985z" fill="url(#h)" fill-rule="evenodd" stroke="#d6d6d6" stroke-linejoin="round" transform="translate(-44.473 -50.85)"/><path d="M135.558 317.94l16.956-63.529-1.192-128.31-31.799 64.093z" fill="url(#i)" fill-rule="evenodd" transform="translate(-44.473 -50.85)"/><path d="M212.855 62.681h70.27l-1.443 155.315h-74.245zm-50.828.097l-68.445.042 1.622 154.622h69.684z" fill="#293441" fill-rule="evenodd"/><path d="M100.666 203.56l-9.58 63.53H282.71l-11.39-63.076z" fill="#2d3948" fill-rule="evenodd"/><path d="M327.184 317.94l-16.64-63.077.625-129.169 32.195 64.496z" fill="url(#j)" fill-rule="evenodd" transform="translate(-44.473 -50.85)"/><path d="M135.705 317.94l16.81-63.529-1.193-128.31-31.797 64.09z" fill="url(#k)" fill-rule="evenodd" transform="translate(-44.473 -50.85)"/><path d="M154.843 98.577l6.327 134.88h49.285l7.939-134.88z" fill="#2d3b48" fill-rule="evenodd" stroke-linejoin="round"/><path d="M407.2 190.194L326.65 61.35h-191.5L54.986 190.194h64.54l31.626-63.844h52l-3.835 23.078h63.551l-3.359-23.777h51.796l32.06 64.543z" fill="url(#l)" fill-rule="evenodd" stroke="#d6d6d6" stroke-linejoin="round" transform="translate(-44.473 -50.85)"/><path d="M215.035 74.8l52.235.044 31.62 64.5-16.18 127.746H161.17l62.822-127.746z" opacity=".449" fill="#363f49" fill-rule="evenodd"/><path d="M268.465 190.194L205.643 317.94h-70.085l-16.035-127.746z" opacity=".3" fill="url(#m)" fill-rule="evenodd" transform="translate(-44.473 -50.85)"/><path d="M151.15 126.35h52l-3.834 23.078h63.551l5.598 40.766H119.523z" opacity=".2" fill="url(#n)" fill-rule="evenodd" transform="translate(-44.473 -50.85)"/><g color="#000" stroke-linecap="round"><g transform="matrix(.89998 0 0 .97775 -60.817 512.266)"><ellipse ry="24.805" rx="6.63" cy="-325.399" cx="272.593" style="isolation:auto;mix-blend-mode:normal;marker:none" transform="matrix(1.49929 0 0 1.30774 -75.689 99.471)" overflow="visible" opacity=".8" fill="#05f0ff" stroke-width="3" filter="url(#o)" enable-background="accumulate"/><ellipse transform="matrix(1.16533 0 0 1.15783 -3.956 51.93)" ry="24.805" rx="6.63" cy="-326.054" cx="289.158" style="isolation:auto;mix-blend-mode:normal;marker:none" overflow="visible" opacity=".9" fill="#fff" stroke="#06effe" stroke-width=".918" filter="url(#p)" enable-background="accumulate"/><ellipse style="isolation:auto;mix-blend-mode:normal;marker:none" cx="289.158" cy="-326.054" rx="6.63" ry="24.805" transform="matrix(1.16533 0 0 1.0707 -3.956 23.603)" overflow="visible" opacity=".9" fill="#feffff" stroke="#06effe" stroke-width=".954" filter="url(#p)" enable-background="accumulate"/></g><g transform="matrix(.89998 0 0 .97775 -162.01 516.743)"><ellipse transform="matrix(1.49929 0 0 1.30774 -75.689 99.471)" style="isolation:auto;mix-blend-mode:normal;marker:none" cx="272.593" cy="-325.399" rx="6.63" ry="24.805" overflow="visible" opacity=".8" fill="#05f0ff" stroke-width="3" filter="url(#o)" enable-background="accumulate"/><ellipse style="isolation:auto;mix-blend-mode:normal;marker:none" cx="289.158" cy="-326.054" rx="6.63" ry="24.805" transform="matrix(1.16533 0 0 1.15783 -3.956 51.93)" overflow="visible" opacity=".9" fill="#fff" stroke="#06effe" stroke-width=".918" filter="url(#p)" enable-background="accumulate"/><ellipse transform="matrix(1.16533 0 0 1.0707 -3.956 23.603)" ry="24.805" rx="6.63" cy="-326.054" cx="289.158" style="isolation:auto;mix-blend-mode:normal;marker:none" overflow="visible" opacity=".9" fill="#feffff" stroke="#06effe" stroke-width=".954" filter="url(#p)" enable-background="accumulate"/></g></g><path d="M106.678 75.5h52l-3.835 23.077h63.55l-3.358-23.776 52.235.043 31.62 64.5-16.179 127.746H91.085L75.05 139.343z" fill="none" fill-rule="evenodd" stroke="#d6d6d6" stroke-linejoin="round"/><path d="M298.363 139.344H74.893" opacity=".343" fill="#fff" fill-rule="evenodd" stroke="#fff"/></svg>